<?xml version="1.0" encoding="UTF-8" standalone="no"?>
<svg width="60px" height="60px" viewBox="0 0 60 60" version="1.1" xmlns="http://www.w3.org/2000/svg" xmlns:xlink="http://www.w3.org/1999/xlink">
    <!-- Generator: Sketch 39.1 (31720) - http://www.bohemiancoding.com/sketch -->
    <title>Coub_Color</title>
    <desc>Created with Sketch.</desc>
    <defs>
        <path d="M29,58 C45.0162443,58 58,45.0162443 58,29 C58,12.9837557 45.0162443,0 29,0 C12.9837557,0 0,12.9837557 0,29 C0,45.0162443 12.9837557,58 29,58 L29,58 Z" id="path-1"></path>
        <path d="M14.2516714,55.539 C5.69892857,50.2538143 0,40.7924571 0,30 C0,13.4314714 13.4314714,0 30,0 C46.5685286,0 60,13.4314714 60,30 C60,46.5685286 46.5685286,60 30,60 C29.2048714,60 28.4169429,59.9690571 27.6374143,59.9083286 L30.5885143,51.8003143 C31.0767857,50.4587571 32.7067286,48.6615857 34.1440714,47.0752714 C34.9669714,46.1695714 35.6762571,45.3861429 35.9470714,44.9257286 C37.2536143,42.7006714 41.2387714,36.0166714 41.2789714,35.949 C42.0979286,34.7745857 43.4121429,32.7665571 44.2222714,31.4559429 L48.6475286,24.2664857 C49.4569714,22.9522714 49.5182571,21.3028714 48.7839857,20.5910143 C48.6549429,20.4666429 48.5037857,20.3721857 48.3352286,20.3108143 C47.5238571,20.0155286 46.4458286,20.4942857 45.6519429,21.5020714 L41.2034143,27.7052571 C40.6889143,28.3589571 40.1134714,28.8950143 39.5564571,29.4139714 C39.0930429,29.8456714 38.6147143,30.2929286 38.1864,30.7914857 L37.7319429,31.3229143 C37.6766571,31.3865571 37.5996,31.4256857 37.5157714,31.4312143 C37.4319429,31.4367429 37.3524857,31.4263286 37.2798,31.3998857 C37.1211429,31.3421143 36.8656714,31.161 36.9349714,30.5960571 C36.9500571,30.5265429 37.7287714,27.2538 35.6635286,26.3818286 L35.5732714,26.3475429 C34.4570143,25.9412571 33.5679857,26.6392714 32.5812429,27.8130429 C32.4328286,27.9893571 32.1292714,28.0059429 31.9761857,27.9502286 C31.6736143,27.825 31.5399429,27.5567571 31.6101429,27.2448429 C31.9622143,25.6701429 31.3129714,24.1974857 30.0664714,23.7437571 L29.9705143,23.7117857 C28.8856714,23.3636571 27.5766429,23.8095 26.7916714,24.7995857 C26.7626143,24.8352857 26.7288,24.8638714 26.6889,24.8839286 C26.5329857,25.0326857 26.2653429,25.2396 25.9742143,25.1336571 C25.6624714,25.0201714 25.5883286,24.6406286 25.5602571,24.3645429 L25.5251571,24.0221143 C25.4913,23.6830286 25.4477143,23.2917429 25.3980857,22.8714857 C25.2420857,21.498 25.0473857,19.7880429 25.0785429,18.6521571 L25.5570429,10.5798429 C25.5902571,9.40088571 25.0478143,8.3961 24.2080714,8.09044286 C23.9711571,8.00421429 23.7219,7.9773 23.4666857,8.00952857 C22.2794571,8.16222857 21.2598,9.50807143 21.1440429,11.0743286 L20.2629857,19.2357857 C20.2019143,20.0618571 20.2210714,21.2160429 20.2401,22.3317429 C20.2542429,23.1598286 20.2676143,23.9418857 20.2480286,24.5736 L20.1712714,27.1766571 C20.1438429,28.0533857 19.8639429,28.6819286 19.3379571,29.0446714 C19.0479429,29.2488 18.0719571,29.9502429 17.0164714,30.9343714 C16.9005857,31.0426714 16.7832857,31.1455714 16.6683,31.2474 C15.8892,31.9377 15.2173286,32.5341 15.1526571,34.5138857 C15.1185857,35.4437143 15.1616571,36.3889714 15.2956714,37.7773714 C15.4356429,39.2350714 15.8663571,40.1495571 16.3233857,41.1174 C16.9744286,42.4967571 18.2524714,44.5469143 17.3918571,46.9113857 C17.3849571,46.9302857 15.3098143,52.6317857 14.2516714,55.539 L14.2516714,55.539 Z" id="path-3"></path>
    </defs>
    <g id="Page-1" stroke="none" stroke-width="1" fill="none" fill-rule="evenodd">
        <g id="Social_icons" transform="translate(-563.000000, -385.000000)">
            <g id="Color" transform="translate(60.000000, 60.000000)">
                <g id="Coub" transform="translate(503.000000, 325.000000)">
                    <g id="Group-3" transform="translate(1.000000, 2.000000)">
                        <mask id="mask-2" fill="white">
                            <use xlink:href="#path-1"></use>
                        </mask>
                        <g id="Clip-2"></g>
                        <polygon id="Fill-1" fill="#FFFFFF" mask="url(#mask-2)" points="-1.00342857 58.0008571 59.0034286 58.0008571 59.0034286 -2.00085714 -1.00342857 -2.00085714"></polygon>
                    </g>
                    <g id="Group-6">
                        <mask id="mask-4" fill="white">
                            <use xlink:href="#path-3"></use>
                        </mask>
                        <g id="Clip-5"></g>
                        <polygon id="Fill-4" fill="#0043FF" mask="url(#mask-4)" points="-0.00342857143 60.0008571 60.0034286 60.0008571 60.0034286 -0.000857142857 -0.00342857143 -0.000857142857"></polygon>
                    </g>
                </g>
            </g>
        </g>
    </g>
</svg>